<?xml version="1.0" encoding="UTF-8" standalone="no"?>
<!-- Created with Inkscape (http://www.inkscape.org/) -->

<svg
   xmlns:dc="http://purl.org/dc/elements/1.1/"
   xmlns:cc="http://creativecommons.org/ns#"
   xmlns:rdf="http://www.w3.org/1999/02/22-rdf-syntax-ns#"
   xmlns:svg="http://www.w3.org/2000/svg"
   xmlns="http://www.w3.org/2000/svg"
   xmlns:xlink="http://www.w3.org/1999/xlink"
   xmlns:sodipodi="http://sodipodi.sourceforge.net/DTD/sodipodi-0.dtd"
   xmlns:inkscape="http://www.inkscape.org/namespaces/inkscape"
   width="210mm"
   height="297mm"
   viewBox="0 0 210 297"
   version="1.1"
   id="svg8"
   inkscape:version="0.92.3 (2405546, 2018-03-11)"
   sodipodi:docname="tag.svg">
  <defs
     id="defs2" />
  <sodipodi:namedview
     id="base"
     pagecolor="#ffffff"
     bordercolor="#666666"
     borderopacity="1.0"
     inkscape:pageopacity="0.0"
     inkscape:pageshadow="2"
     inkscape:zoom="1.4142136"
     inkscape:cx="69.470742"
     inkscape:cy="1021.2693"
     inkscape:document-units="mm"
     inkscape:current-layer="layer1"
     showgrid="false"
     inkscape:window-width="1850"
     inkscape:window-height="1043"
     inkscape:window-x="70"
     inkscape:window-y="0"
     inkscape:window-maximized="1" />
  <metadata
     id="metadata5">
    <rdf:RDF>
      <cc:Work
         rdf:about="">
        <dc:format>image/svg+xml</dc:format>
        <dc:type
           rdf:resource="http://purl.org/dc/dcmitype/StillImage" />
        <dc:title />
      </cc:Work>
    </rdf:RDF>
  </metadata>
  <g
     inkscape:label="Layer 1"
     inkscape:groupmode="layer"
     id="layer1">
    <path
       style="fill:none;stroke:#010101;stroke-width:0.26458332"
       inkscape:connector-curvature="0"
       id="path11"
       d="M 136.74352,120.58953" />
    <g
       id="g888"
       transform="translate(-70.877186,-12.722031)"
       inkscape:tile-cx="29.404099"
       inkscape:tile-cy="29.784599"
       inkscape:tile-w="28.375112"
       inkscape:tile-h="28.335524"
       inkscape:tile-x0="15.216543"
       inkscape:tile-y0="15.591837">
      <rect
         style="opacity:1;vector-effect:none;fill:#ffffff;fill-opacity:1;stroke:none;stroke-width:0.1;stroke-linecap:round;stroke-linejoin:bevel;stroke-miterlimit:4;stroke-dasharray:none"
         id="rect1046"
         width="2.8855231"
         height="2.8855231"
         x="58.666645"
         y="53.76387" />
      <rect
         y="28.363869"
         x="33.266647"
         height="25.4"
         width="25.4"
         id="rect815"
         style="opacity:1;vector-effect:none;fill:#ffffff;fill-opacity:1;stroke:#000000;stroke-width:0.1;stroke-linecap:round;stroke-linejoin:bevel;stroke-miterlimit:4;stroke-dasharray:none" />
      <g
         style="stroke-width:21.99058151"
         transform="matrix(0.01203167,0,0,0.01203167,34.021562,29.33222)"
         id="g3">
        <path
           d="m 236.824,493.146 v -65.203 c 2.34,-0.895 4.623,-1.963 6.815,-3.257 31.087,-18.327 34.355,-70.395 7.293,-116.288 -27.059,-45.895 -74.196,-68.24 -105.282,-49.912 -31.087,18.329 -34.354,70.394 -7.297,116.288 4.366,7.403 9.258,14.182 14.517,20.287 V 443.5 L 85.868,405.156 V 165.002 L 62.383,149.499 c -21.394,38.979 -33.561,83.741 -33.561,131.343 0,147.904 117.359,268.317 264.08,273.177 l 0.025,-28.178 z"
           id="path5"
           inkscape:connector-curvature="0"
           style="fill:#0e9a48;stroke-width:21.99058151" />
        <path
           d="m 159.006,111.537 40.952,24.27 c -0.807,6.729 -0.833,14.137 -0.807,16.684 0.375,36.085 49.245,63.517 102.52,62.965 53.275,-0.552 91.219,-32.827 90.95,-64.58 -0.304,-36.084 -35.004,-64.336 -88.259,-65.924 -18.029,-0.538 -35.408,3.062 -43.322,4.574 L 231.172,70.42 302.209,29.889 511.621,151.614 535.638,138.431 C 512.533,100.441 479.811,67.564 438.557,43.812 310.379,-29.985 147.468,11.642 70.052,136.37 l 23.821,15.042 z"
           id="path7"
           inkscape:connector-curvature="0"
           style="fill:#cb2026;stroke-width:21.99058151" />
        <path
           d="m 518.687,243.843 -44.532,23.277 c -1.614,-0.27 -11.499,-9.522 -13.723,-10.764 -31.526,-17.563 -77.938,5.659 -103.867,52.201 -25.93,46.54 -23.719,99.753 7.805,117.32 31.527,17.562 78.47,-3.509 104.403,-50.049 4.182,-7.508 9.767,-24.938 12.378,-32.559 l 37.938,-21.932 -0.225,83.273 -208.851,121.97 0.101,27.481 c 44.448,-1.233 89.223,-13.354 130.301,-37.406 C 568.045,441.919 612.652,279.8 542.709,150.734 l -24.022,13.191 z"
           id="path9"
           inkscape:connector-curvature="0"
           style="fill:#35469d;stroke-width:21.99058151" />
      </g>
      <g
         transform="matrix(0.02906903,0,0,0.02906903,41.425341,12.936677)"
         id="g921"
         style="fill:#010101;stroke-width:9.10189819">
        <path
           style="stroke-width:9.10189819"
           d="m 52.172,581.5569 h 53.562 v 16.25 H 72.063 v 20.021 h 31.461 v 16.12 H 72.063 v 35.231 H 52.172 Z"
           id="path15"
           inkscape:connector-curvature="0" />
        <path
           style="stroke-width:9.10189819"
           d="m 132.384,646.6879 -6.24,22.491 h -20.541 l 26.781,-87.623 h 26.001 l 27.171,87.623 h -21.321 l -6.76,-22.491 z m 22.231,-14.82 -5.46,-18.591 c -1.56,-5.2 -3.12,-11.7 -4.42,-16.9 h -0.26 c -1.3,5.2 -2.6,11.83 -4.03,16.9 l -5.2,18.591 z"
           id="path17"
           inkscape:connector-curvature="0" />
        <path
           style="stroke-width:9.10189819"
           d="m 197.251,582.7269 c 5.2,-1.04 15.731,-1.82 25.611,-1.82 12.09,0 19.5,1.17 25.871,4.94 6.11,3.25 10.53,9.23 10.53,17.16 0,7.801 -4.55,15.081 -14.431,18.721 v 0.261 c 10.01,2.729 17.421,10.27 17.421,21.58 0,7.931 -3.641,14.171 -9.101,18.591 -6.37,5.07 -17.031,7.931 -34.451,7.931 -9.75,0 -17.031,-0.65 -21.451,-1.3 v -86.064 z m 19.631,33.541 h 6.5 c 10.4,0 15.991,-4.29 15.991,-10.79 0,-6.631 -5.07,-10.141 -14.041,-10.141 -4.29,0 -6.76,0.26 -8.45,0.521 z m 0,38.871 c 1.95,0.261 4.29,0.261 7.67,0.261 8.97,0 16.901,-3.38 16.901,-12.61 0,-8.841 -7.931,-12.351 -17.811,-12.351 h -6.76 z"
           id="path19"
           inkscape:connector-curvature="0" />
        <path
           style="stroke-width:9.10189819"
           d="m 302.03,581.5569 h 19.891 v 70.982 h 34.842 v 16.641 h -54.732 v -87.623 z"
           id="path21"
           inkscape:connector-curvature="0" />
        <path
           style="stroke-width:9.10189819"
           d="m 389.649,646.6879 -6.24,22.491 h -20.541 l 26.781,-87.623 h 26 l 27.172,87.623 H 421.5 l -6.761,-22.491 z m 22.23,-14.82 -5.461,-18.591 c -1.56,-5.2 -3.119,-11.7 -4.42,-16.9 h -0.26 c -1.3,5.2 -2.6,11.83 -4.03,16.9 l -5.2,18.591 z"
           id="path23"
           inkscape:connector-curvature="0" />
        <path
           style="stroke-width:9.10189819"
           d="m 454.516,582.7269 c 5.2,-1.04 15.73,-1.82 25.611,-1.82 12.09,0 19.501,1.17 25.871,4.94 6.11,3.25 10.53,9.23 10.53,17.16 0,7.801 -4.55,15.081 -14.431,18.721 v 0.261 c 10.011,2.729 17.421,10.27 17.421,21.58 0,7.931 -3.641,14.171 -9.101,18.591 -6.37,5.07 -17.03,7.931 -34.451,7.931 -9.75,0 -17.031,-0.65 -21.451,-1.3 v -86.064 z m 19.631,33.541 h 6.5 c 10.4,0 15.991,-4.29 15.991,-10.79 0,-6.631 -5.07,-10.141 -14.041,-10.141 -4.29,0 -6.76,0.26 -8.45,0.521 z m 0,38.871 c 1.95,0.261 4.29,0.261 7.67,0.261 8.971,0 16.901,-3.38 16.901,-12.61 0,-8.841 -7.931,-12.351 -17.812,-12.351 h -6.76 v 24.7 z"
           id="path25"
           inkscape:connector-curvature="0" />
      </g>
      <text
         id="text956"
         y="34.964546"
         x="42.698883"
         style="font-style:normal;font-variant:normal;font-weight:normal;font-stretch:normal;font-size:2.7324717px;line-height:1.25;font-family:'Noto Sans';-inkscape-font-specification:'Noto Sans';letter-spacing:0.0075143px;word-spacing:0px;fill:#000000;fill-opacity:1;stroke:none;stroke-width:0.26458332"
         xml:space="preserve"><tspan
           style="font-style:normal;font-variant:normal;font-weight:bold;font-stretch:normal;font-family:'Noto Sans';-inkscape-font-specification:'Noto Sans';stroke-width:0.26458332"
           y="34.964546"
           x="42.698883"
           id="tspan954"
           sodipodi:role="line">JOINVILLE</tspan></text>
      <rect
         y="37.28883"
         x="33.177055"
         height="5.9868369"
         width="25.50642"
         id="rect958"
         style="opacity:1;vector-effect:none;fill:#333333;fill-opacity:1;stroke:none;stroke-width:0.1;stroke-linecap:round;stroke-linejoin:bevel;stroke-miterlimit:4;stroke-dasharray:none" />
      <text
         id="text956-3"
         y="52.090126"
         x="36.90591"
         style="font-style:normal;font-variant:normal;font-weight:normal;font-stretch:normal;font-size:1.65710247px;line-height:1.25;font-family:'Noto Sans';-inkscape-font-specification:'Noto Sans';letter-spacing:0.00455703px;word-spacing:0px;fill:#4d4d4d;fill-opacity:1;stroke:none;stroke-width:0.26458332"
         xml:space="preserve"><tspan
           style="font-style:normal;font-variant:normal;font-weight:normal;font-stretch:normal;font-family:'Noto Sans';-inkscape-font-specification:'Noto Sans';fill:#4d4d4d;stroke-width:0.26458332"
           y="52.090126"
           x="36.90591"
           id="tspan954-6"
           sodipodi:role="line">lucas@camargo.eng.br</tspan></text>
      <text
         id="text956-7"
         y="41.186928"
         x="45.958843"
         style="font-style:normal;font-variant:normal;font-weight:normal;font-stretch:normal;font-size:2.77963448px;line-height:1.25;font-family:'Noto Sans';-inkscape-font-specification:'Noto Sans';text-align:center;letter-spacing:0.007644px;word-spacing:0px;text-anchor:middle;fill:#ffffff;fill-opacity:1;stroke:none;stroke-width:0.26458332"
         xml:space="preserve"><tspan
           style="font-style:normal;font-variant:normal;font-weight:bold;font-stretch:normal;font-family:'Noto Sans';-inkscape-font-specification:'Noto Sans';text-align:center;text-anchor:middle;fill:#ffffff;stroke-width:0.26458332"
           y="41.186928"
           x="45.962666"
           id="tspan954-5"
           sodipodi:role="line">FABINHO v1</tspan></text>
      <text
         xml:space="preserve"
         style="font-style:normal;font-variant:normal;font-weight:normal;font-stretch:normal;font-size:1.65710247px;line-height:1.25;font-family:'Noto Sans';-inkscape-font-specification:'Noto Sans';text-align:center;letter-spacing:0.00455703px;word-spacing:0px;text-anchor:middle;fill:#000000;fill-opacity:1;stroke:none;stroke-width:0.26458332"
         x="45.825798"
         y="46.269287"
         id="text862"><tspan
           sodipodi:role="line"
           id="tspan860"
           x="45.828075"
           y="46.269287"
           style="font-style:normal;font-variant:normal;font-weight:normal;font-stretch:normal;font-family:'Noto Sans';-inkscape-font-specification:'Noto Sans';text-align:center;text-anchor:middle;stroke-width:0.26458332">Arduino-Compatible</tspan><tspan
           id="tspan864"
           sodipodi:role="line"
           x="45.828075"
           y="48.340664"
           style="font-style:normal;font-variant:normal;font-weight:normal;font-stretch:normal;font-family:'Noto Sans';-inkscape-font-specification:'Noto Sans';text-align:center;text-anchor:middle;stroke-width:0.26458332">(use FTDI cable)</tspan></text>
    </g>
    <use
       x="0"
       y="0"
       inkscape:tiled-clone-of="#g888"
       xlink:href="#g888"
       id="use1188"
       transform="translate(59.795843,4.2333335)"
       width="100%"
       height="100%" />
    <use
       x="0"
       y="0"
       inkscape:tiled-clone-of="#g888"
       xlink:href="#g888"
       transform="translate(59.795843,32.56886)"
       id="use1190"
       width="100%"
       height="100%" />
    <use
       x="0"
       y="0"
       inkscape:tiled-clone-of="#g888"
       xlink:href="#g888"
       transform="translate(59.795843,60.904384)"
       id="use1192"
       width="100%"
       height="100%" />
    <use
       x="0"
       y="0"
       inkscape:tiled-clone-of="#g888"
       xlink:href="#g888"
       transform="translate(59.795843,89.239908)"
       id="use1194"
       width="100%"
       height="100%" />
    <use
       x="0"
       y="0"
       inkscape:tiled-clone-of="#g888"
       xlink:href="#g888"
       transform="translate(59.795843,117.57546)"
       id="use1196"
       width="100%"
       height="100%" />
    <use
       x="0"
       y="0"
       inkscape:tiled-clone-of="#g888"
       xlink:href="#g888"
       transform="translate(59.795843,145.91098)"
       id="use1198"
       width="100%"
       height="100%" />
    <use
       x="0"
       y="0"
       inkscape:tiled-clone-of="#g888"
       xlink:href="#g888"
       transform="translate(59.795843,174.2465)"
       id="use1200"
       width="100%"
       height="100%" />
    <use
       x="0"
       y="0"
       inkscape:tiled-clone-of="#g888"
       xlink:href="#g888"
       transform="translate(59.795843,202.58203)"
       id="use1202"
       width="100%"
       height="100%" />
    <use
       x="0"
       y="0"
       inkscape:tiled-clone-of="#g888"
       xlink:href="#g888"
       transform="translate(59.795843,230.91755)"
       id="use1204"
       width="100%"
       height="100%" />
    <use
       x="0"
       y="0"
       inkscape:tiled-clone-of="#g888"
       xlink:href="#g888"
       transform="translate(88.170957,4.2333335)"
       id="use1206"
       width="100%"
       height="100%" />
    <use
       x="0"
       y="0"
       inkscape:tiled-clone-of="#g888"
       xlink:href="#g888"
       transform="translate(88.170957,32.56886)"
       id="use1208"
       width="100%"
       height="100%" />
    <use
       x="0"
       y="0"
       inkscape:tiled-clone-of="#g888"
       xlink:href="#g888"
       transform="translate(88.170957,60.904384)"
       id="use1210"
       width="100%"
       height="100%" />
    <use
       x="0"
       y="0"
       inkscape:tiled-clone-of="#g888"
       xlink:href="#g888"
       transform="translate(88.170957,89.239908)"
       id="use1212"
       width="100%"
       height="100%" />
    <use
       x="0"
       y="0"
       inkscape:tiled-clone-of="#g888"
       xlink:href="#g888"
       transform="translate(88.170957,117.57546)"
       id="use1214"
       width="100%"
       height="100%" />
    <use
       x="0"
       y="0"
       inkscape:tiled-clone-of="#g888"
       xlink:href="#g888"
       transform="translate(88.170957,145.91098)"
       id="use1216"
       width="100%"
       height="100%" />
    <use
       x="0"
       y="0"
       inkscape:tiled-clone-of="#g888"
       xlink:href="#g888"
       transform="translate(88.170957,174.2465)"
       id="use1218"
       width="100%"
       height="100%" />
    <use
       x="0"
       y="0"
       inkscape:tiled-clone-of="#g888"
       xlink:href="#g888"
       transform="translate(88.170957,202.58203)"
       id="use1220"
       width="100%"
       height="100%" />
    <use
       x="0"
       y="0"
       inkscape:tiled-clone-of="#g888"
       xlink:href="#g888"
       transform="translate(88.170957,230.91755)"
       id="use1222"
       width="100%"
       height="100%" />
    <use
       x="0"
       y="0"
       inkscape:tiled-clone-of="#g888"
       xlink:href="#g888"
       transform="translate(116.54613,4.2333335)"
       id="use1224"
       width="100%"
       height="100%" />
    <use
       x="0"
       y="0"
       inkscape:tiled-clone-of="#g888"
       xlink:href="#g888"
       transform="translate(116.54613,32.56886)"
       id="use1226"
       width="100%"
       height="100%" />
    <use
       x="0"
       y="0"
       inkscape:tiled-clone-of="#g888"
       xlink:href="#g888"
       transform="translate(116.54613,60.904384)"
       id="use1228"
       width="100%"
       height="100%" />
    <use
       x="0"
       y="0"
       inkscape:tiled-clone-of="#g888"
       xlink:href="#g888"
       transform="translate(116.54613,89.239908)"
       id="use1230"
       width="100%"
       height="100%" />
    <use
       x="0"
       y="0"
       inkscape:tiled-clone-of="#g888"
       xlink:href="#g888"
       transform="translate(116.54613,117.57546)"
       id="use1232"
       width="100%"
       height="100%" />
    <use
       x="0"
       y="0"
       inkscape:tiled-clone-of="#g888"
       xlink:href="#g888"
       transform="translate(116.54613,145.91098)"
       id="use1234"
       width="100%"
       height="100%" />
    <use
       x="0"
       y="0"
       inkscape:tiled-clone-of="#g888"
       xlink:href="#g888"
       transform="translate(116.54613,174.2465)"
       id="use1236"
       width="100%"
       height="100%" />
    <use
       x="0"
       y="0"
       inkscape:tiled-clone-of="#g888"
       xlink:href="#g888"
       transform="translate(116.54613,202.58203)"
       id="use1238"
       width="100%"
       height="100%" />
    <use
       x="0"
       y="0"
       inkscape:tiled-clone-of="#g888"
       xlink:href="#g888"
       transform="translate(116.54613,230.91755)"
       id="use1240"
       width="100%"
       height="100%" />
    <use
       x="0"
       y="0"
       inkscape:tiled-clone-of="#g888"
       xlink:href="#g888"
       transform="translate(144.92126,4.2333335)"
       id="use1242"
       width="100%"
       height="100%" />
    <use
       x="0"
       y="0"
       inkscape:tiled-clone-of="#g888"
       xlink:href="#g888"
       transform="translate(144.92126,32.56886)"
       id="use1244"
       width="100%"
       height="100%" />
    <use
       x="0"
       y="0"
       inkscape:tiled-clone-of="#g888"
       xlink:href="#g888"
       transform="translate(144.92126,60.904384)"
       id="use1246"
       width="100%"
       height="100%" />
    <use
       x="0"
       y="0"
       inkscape:tiled-clone-of="#g888"
       xlink:href="#g888"
       transform="translate(144.92126,89.239908)"
       id="use1248"
       width="100%"
       height="100%" />
    <use
       x="0"
       y="0"
       inkscape:tiled-clone-of="#g888"
       xlink:href="#g888"
       transform="translate(144.92126,117.57546)"
       id="use1250"
       width="100%"
       height="100%" />
    <use
       x="0"
       y="0"
       inkscape:tiled-clone-of="#g888"
       xlink:href="#g888"
       transform="translate(144.92126,145.91098)"
       id="use1252"
       width="100%"
       height="100%" />
    <use
       x="0"
       y="0"
       inkscape:tiled-clone-of="#g888"
       xlink:href="#g888"
       transform="translate(144.92126,174.2465)"
       id="use1254"
       width="100%"
       height="100%" />
    <use
       x="0"
       y="0"
       inkscape:tiled-clone-of="#g888"
       xlink:href="#g888"
       transform="translate(144.92126,202.58203)"
       id="use1256"
       width="100%"
       height="100%" />
    <use
       x="0"
       y="0"
       inkscape:tiled-clone-of="#g888"
       xlink:href="#g888"
       transform="translate(144.92126,230.91755)"
       id="use1258"
       width="100%"
       height="100%" />
    <use
       x="0"
       y="0"
       inkscape:tiled-clone-of="#g888"
       xlink:href="#g888"
       transform="translate(173.2964,4.2333335)"
       id="use1260"
       width="100%"
       height="100%" />
    <use
       x="0"
       y="0"
       inkscape:tiled-clone-of="#g888"
       xlink:href="#g888"
       transform="translate(173.2964,32.56886)"
       id="use1262"
       width="100%"
       height="100%" />
    <use
       x="0"
       y="0"
       inkscape:tiled-clone-of="#g888"
       xlink:href="#g888"
       transform="translate(173.2964,60.904384)"
       id="use1264"
       width="100%"
       height="100%" />
    <use
       x="0"
       y="0"
       inkscape:tiled-clone-of="#g888"
       xlink:href="#g888"
       transform="translate(173.2964,89.239908)"
       id="use1266"
       width="100%"
       height="100%" />
    <use
       x="0"
       y="0"
       inkscape:tiled-clone-of="#g888"
       xlink:href="#g888"
       transform="translate(173.2964,117.57546)"
       id="use1268"
       width="100%"
       height="100%" />
    <use
       x="0"
       y="0"
       inkscape:tiled-clone-of="#g888"
       xlink:href="#g888"
       transform="translate(173.2964,145.91098)"
       id="use1270"
       width="100%"
       height="100%" />
    <use
       x="0"
       y="0"
       inkscape:tiled-clone-of="#g888"
       xlink:href="#g888"
       transform="translate(173.2964,174.2465)"
       id="use1272"
       width="100%"
       height="100%" />
    <use
       x="0"
       y="0"
       inkscape:tiled-clone-of="#g888"
       xlink:href="#g888"
       transform="translate(173.2964,202.58203)"
       id="use1274"
       width="100%"
       height="100%" />
    <use
       x="0"
       y="0"
       inkscape:tiled-clone-of="#g888"
       xlink:href="#g888"
       transform="translate(173.2964,230.91755)"
       id="use1276"
       width="100%"
       height="100%" />
    <use
       x="0"
       y="0"
       inkscape:tiled-clone-of="#g888"
       xlink:href="#g888"
       transform="translate(201.67151,4.2333335)"
       id="use1278"
       width="100%"
       height="100%" />
    <use
       x="0"
       y="0"
       inkscape:tiled-clone-of="#g888"
       xlink:href="#g888"
       transform="translate(201.67151,32.56886)"
       id="use1280"
       width="100%"
       height="100%" />
    <use
       x="0"
       y="0"
       inkscape:tiled-clone-of="#g888"
       xlink:href="#g888"
       transform="translate(201.67151,60.904384)"
       id="use1282"
       width="100%"
       height="100%" />
    <use
       x="0"
       y="0"
       inkscape:tiled-clone-of="#g888"
       xlink:href="#g888"
       transform="translate(201.67151,89.239908)"
       id="use1284"
       width="100%"
       height="100%" />
    <use
       x="0"
       y="0"
       inkscape:tiled-clone-of="#g888"
       xlink:href="#g888"
       transform="translate(201.67151,117.57546)"
       id="use1286"
       width="100%"
       height="100%" />
    <use
       x="0"
       y="0"
       inkscape:tiled-clone-of="#g888"
       xlink:href="#g888"
       transform="translate(201.67151,145.91098)"
       id="use1288"
       width="100%"
       height="100%" />
    <use
       x="0"
       y="0"
       inkscape:tiled-clone-of="#g888"
       xlink:href="#g888"
       transform="translate(201.67151,174.2465)"
       id="use1290"
       width="100%"
       height="100%" />
    <use
       x="0"
       y="0"
       inkscape:tiled-clone-of="#g888"
       xlink:href="#g888"
       transform="translate(201.67151,202.58203)"
       id="use1292"
       width="100%"
       height="100%" />
    <use
       x="0"
       y="0"
       inkscape:tiled-clone-of="#g888"
       xlink:href="#g888"
       transform="translate(201.67151,230.91755)"
       id="use1294"
       width="100%"
       height="100%" />
  </g>
</svg>
